PathFileType	4	(X/Y/Z)	/Users/niels/Desktop/University/Third Semester/Perception and Action/Exam/Gymnastics Motion Tracking/Code for Gym Tracking/Analyzed Data/Webcam_Backflip/id7_4_baseline_Sports2D/id7_4_baseline_Sports2D_px_person00.trc
DataRate	CameraRate	NumFrames	NumMarkers	Units	OrigDataRate	OrigDataStartFrame	OrigNumFrames
29.810126582278482	29.810126582278482	10	22	m	29.810126582278482	98	158
Frame#	Time	Hip			RHip			RKnee			RAnkle			RBigToe			RSmallToe			RHeel			LHip			LKnee			LAnkle			LBigToe			LSmallToe			LHeel			Neck			Head			Nose			RShoulder			RElbow			RWrist			LShoulder			LElbow			LWrist		
		X1	Y1	Z1	X2	Y2	Z2	X3	Y3	Z3	X4	Y4	Z4	X5	Y5	Z5	X6	Y6	Z6	X7	Y7	Z7	X8	Y8	Z8	X9	Y9	Z9	X10	Y10	Z10	X11	Y11	Z11	X12	Y12	Z12	X13	Y13	Z13	X14	Y14	Z14	X15	Y15	Z15	X16	Y16	Z16	X17	Y17	Z17	X18	Y18	Z18	X19	Y19	Z19	X20	Y20	Z20	X21	Y21	Z21	X22	Y22	Z22
98	3.2874734607218685	0.934302422509686	-0.5512602976759773	0.0	0.9320754637622475	-0.553256605156805	0.0	0.9335841102960544	-0.6622557489137355	0.0	0.9179324957440836	-0.770016235900598	0.0	0.9599404363098969	-0.795094622465868	0.0	0.9487110118633401	-0.7973196818058784	0.0	0.9123322360466881	-0.7887614082025458	0.0	0.9325924398258285	-0.551699725479649	0.0	0.9361408517214357	-0.6610357493279247	0.0	0.9205053994950689	-0.7637966537956575	0.0	0.9632011605014978	-0.7881045623217393	0.0	0.960183446732009	-0.7852823699438131	0.0	0.9110488287789695	-0.7785863530504233	0.0	0.9414886879070047	-0.4019939099240885	0.0	0.947706488638848	-0.33209400119862953	0.0	0.9558441145895558	-0.3694433980087775	0.0	0.9268616658576672	-0.4215660543681033	0.0	0.9209561575537583	-0.49340567683004827	0.0	0.9569627444614643	-0.5509165346269909	0.0	0.9479651890860252	-0.4250595250569667	0.0	0.9502884723680339	-0.492281855106769	0.0	0.9832932140721173	-0.5466025492128433	0.0
99	3.3210191082802547	0.9341890243503073	-0.5330723287338347	0.0	0.9321773274082332	-0.5356186443765467	0.0	0.9350299323265289	-0.644273503878329	0.0	0.9201439020013666	-0.7533929490286602	0.0	0.9620888217294606	-0.7815054517685882	0.0	0.950966146612722	-0.7836601508849728	0.0	0.9143170300436925	-0.7727413721928578	0.0	0.9312520541497723	-0.5337187137868863	0.0	0.9367447356530638	-0.6429819658022741	0.0	0.9222043773517373	-0.7469073830324162	0.0	0.9640811251950667	-0.7740757061314022	0.0	0.9609699578536468	-0.7711200950836443	0.0	0.9126463313953688	-0.7617412385206617	0.0	0.9416544790816874	-0.384568537567814	0.0	0.9475477361009229	-0.3137346813526722	0.0	0.9556505882817603	-0.35190542677761877	0.0	0.9267038865017103	-0.40350072888211086	0.0	0.9206439210406291	-0.4743694927794077	0.0	0.9572163775014474	-0.5324555966329712	0.0	0.9495115407592368	-0.40773855904811024	0.0	0.952029007934875	-0.4749793273575689	0.0	0.988745498368165	-0.5280439476803865	0.0
100	3.3545647558386413	0.9341754438210618	-0.5173174700051393	0.0	0.9322966196846647	-0.520126093641167	0.0	0.9362881918833954	-0.6287414655194206	0.0	0.9225795554491523	-0.7390347841641596	0.0	0.9635506633265604	-0.7701170627366482	0.0	0.9525265084231224	-0.7721253768404114	0.0	0.9164521213316124	-0.7585462669140091	0.0	0.9304945502618548	-0.5181178443762827	0.0	0.9372366279225486	-0.6274683456880289	0.0	0.9238964470665235	-0.7325764548625053	0.0	0.964335825149897	-0.7622407600790675	0.0	0.9611962737183155	-0.7591949919681406	0.0	0.9141287747452154	-0.7472031010995036	0.0	0.9417922922321614	-0.3695857551934454	0.0	0.9474026513686572	-0.29810834028658073	0.0	0.9557655607730181	-0.3368577783918682	0.0	0.926472334555705	-0.3879557235900699	0.0	0.9198795223874773	-0.4579538970094594	0.0	0.9560036327292708	-0.5166005822937507	0.0	0.9508404785691826	-0.3928904239916581	0.0	0.9534370333130755	-0.460154435881371	0.0	0.9926867984435489	-0.5125500672186505	0.0
101	3.3881104033970275	0.9342242803426568	-0.504838481496266	0.0	0.9324664128902953	-0.5076098190201934	0.0	0.9373520732556775	-0.6164869586124758	0.0	0.9250027844563491	-0.7276225340062652	0.0	0.9644539926784473	-0.7611961932741736	0.0	0.9535083423449285	-0.7630617707365196	0.0	0.9185910880737155	-0.746987902940903	0.0	0.9303493700314831	-0.5056948357830274	0.0	0.9375129626339229	-0.6153125140241211	0.0	0.9253363841447175	-0.7214473020519974	0.0	0.9642514541449316	-0.7529457210914376	0.0	0.961123092436859	-0.7498885936961244	0.0	0.915296407426825	-0.7358220636881901	0.0	0.9418770751614284	-0.35773122837112675	0.0	0.9472928215454418	-0.2859386361304021	0.0	0.9559436449466253	-0.32502503430989316	0.0	0.9260839837459689	-0.3756389759364898	0.0	0.9188979441456173	-0.44501600023230453	0.0	0.9538874612350771	-0.5041676373768988	0.0	0.951877864238279	-0.381272954176127	0.0	0.9545707490576566	-0.4486444207565455	0.0	0.995017198235865	-0.500864624599777	0.0
102	3.421656050955414	0.9343806529001318	-0.49613100460953924	0.0	0.9327290028623249	-0.4986925867611368	0.0	0.9383186035543062	-0.6079426175906276	0.0	0.9271212502295664	-0.7195742416749593	0.0	0.9649110339714257	-0.7548638149263895	0.0	0.9539509102125867	-0.7566688499134915	0.0	0.9205295226355027	-0.7386421015024008	0.0	0.930835824753851	-0.49698821502200163	0.0	0.937661914367323	-0.6069015608612035	0.0	0.9263828483193887	-0.7138017272766367	0.0	0.96408906173586	-0.7463714622947379	0.0	0.9610485949703975	-0.7433555296552095	0.0	0.9160764533040568	-0.7280239420286643	0.0	0.9419141489014522	-0.3494004483666828	0.0	0.9471846340949015	-0.2776005305144221	0.0	0.9559431503629671	-0.3167688984974325	0.0	0.925515168355883	-0.36700762363615913	0.0	0.917895048720505	-0.4360590535947695	0.0	0.9512211243850046	-0.4957904948381401	0.0	0.9526774353130166	-0.37330036954567175	0.0	0.9553616724352052	-0.44089828594672825	0.0	0.9957259176652326	-0.4933370774718541	0.0
103	3.4552016985138003	0.9347709150159308	-0.49145667278426847	0.0	0.933128375183257	-0.493815292860197	0.0	0.9392717298515302	-0.6033343717384092	0.0	0.9286908089579131	-0.7152270097934689	0.0	0.9649961733992576	-0.7513387009613147	0.0	0.9538298371763465	-0.7531954173398798	0.0	0.9220453314205543	-0.7339874005308941	0.0	0.9319962246306079	-0.49234361250181224	0.0	0.9379030160557562	-0.6024155439641043	0.0	0.9270287465297941	-0.7097989822884915	0.0	0.9639556406653682	-0.7427648445647492	0.0	0.9612058715833162	-0.7397724371025898	0.0	0.9164877147490607	-0.7240238081369716	0.0	0.9419059680194743	-0.3448283513571011	0.0	0.9470648382623548	-0.2732595101200888	0.0	0.9556421984496268	-0.3122788766885185	0.0	0.9247933294396453	-0.3623354111423953	0.0	0.916966274191847	-0.4313359067491902	0.0	0.9481451495004894	-0.49182972087775295	0.0	0.9533558877152843	-0.3691458642027148	0.0	0.9557629410698759	-0.4371020147324538	0.0	0.9949494395707765	-0.4900572418353685	0.0
104	3.488747346072187	0.9355440333949377	-0.4909550721947143	0.0	0.9336911577720173	-0.4932179475949044	0.0	0.9402043018997363	-0.6027896415240297	0.0	0.929566600625778	-0.7148184203181425	0.0	0.9647423930600559	-0.7508647369157244	0.0	0.953114801136348	-0.7528582302116544	0.0	0.9229455811147175	-0.7333420860876574	0.0	0.9339396853234019	-0.49193359675652837	0.0	0.9384712319892181	-0.6019665424506874	0.0	0.927383529087237	-0.7095544114702175	0.0	0.9638577447197281	-0.7423888314955087	0.0	0.9617040387739267	-0.7393545163945102	0.0	0.9166168109927997	-0.7239105897935426	0.0	0.9418431253444346	-0.34414648181410223	0.0	0.946957726088649	-0.2729502743549422	0.0	0.9550637258999215	-0.3116858972040586	0.0	0.9239562949101766	-0.36175380499818444	0.0	0.9160860162567547	-0.43088492353744917	0.0	0.944636533340158	-0.4923014568719409	0.0	0.9540243209898495	-0.368810714182554	0.0	0.9557976832038027	-0.4372264925994535	0.0	0.9929171119842625	-0.49092759861455115	0.0
105	3.522292993630573	0.9367940254353413	-0.49467413925329756	0.0	0.9344085465995895	-0.4969303876527189	0.0	0.9409946453011815	-0.6063464061032191	0.0	0.9296778701604028	-0.7183774879126754	0.0	0.9641697705430343	-0.7535356563235353	0.0	0.9518306887218686	-0.7556786524273422	0.0	0.9230673604968658	-0.7367154977865679	0.0	0.9368011283949869	-0.49578024324252745	0.0	0.939543768124599	-0.6056043128060468	0.0	0.9276330241308035	-0.7130966445515561	0.0	0.9638383377752209	-0.7453709876604364	0.0	0.9625338715952261	-0.742219845161695	0.0	0.9166471410820223	-0.7276173944979796	0.0	0.9417001071443587	-0.3473952107906452	0.0	0.9468564942872616	-0.27665136931057605	0.0	0.9543290357986355	-0.3150506828525064	0.0	0.9230533159914048	-0.3652961655447903	0.0	0.9151777998982286	-0.4346134271968478	0.0	0.9406586106580593	-0.49701337896317804	0.0	0.9547292282668527	-0.3721960703229639	0.0	0.9555586183171162	-0.44107788525876923	0.0	0.9898648349806344	-0.4957567464552837	0.0
106	3.5558386411889598	0.9385210079232739	-0.5025481894027941	0.0	0.9352413877602698	-0.504805934256701	0.0	0.9413971796056356	-0.6139267186520783	0.0	0.9289769410553049	-0.7256783159524397	0.0	0.9633047811308374	-0.7592008823389234	0.0	0.9500733251093919	-0.7614250887582636	0.0	0.9222733051621707	-0.743763319562191	0.0	0.9405916182450835	-0.5037884997866697	0.0	0.9412171162026484	-0.613271135768564	0.0	0.9279518213423751	-0.7203030768608942	0.0	0.9639815614077113	-0.751612484595298	0.0	0.9635712096456115	-0.74826950491602	0.0	0.9168303277084772	-0.7348789202187994	0.0	0.9414616645784218	-0.354532236778993	0.0	0.9466951427487503	-0.2843370623651574	0.0	0.9536280936655334	-0.3223263620437565	0.0	0.9221738775891947	-0.372913110404543	0.0	0.9142009047282232	-0.44241586261930477	0.0	0.9363232359228685	-0.5057491931031419	0.0	0.9554272572574438	-0.3791815875663792	0.0	0.9551740951451791	-0.4484176579361646	0.0	0.9859966435440257	-0.5043385757245782	0.0
107	3.589384288747346	0.940605996039654	-0.5143504354711015	0.0	0.9361061183390141	-0.5165348706146944	0.0	0.94108766582211	-0.6252832059739358	0.0	0.9274617300988163	-0.7362829567353644	0.0	0.9621669966062344	-0.767508290666625	0.0	0.9479889391268755	-0.7696891732952079	0.0	0.9205278001000415	-0.7538846858470974	0.0	0.9450229287864679	-0.5156962830083948	0.0	0.9434550708480145	-0.6247318723182375	0.0	0.9283946674291361	-0.730865423791655	0.0	0.9642956004206963	-0.7607666764464834	0.0	0.9645663865848123	-0.7571682607392022	0.0	0.9173687427497353	-0.7452573055041845	0.0	0.9411780923793418	-0.3653780341602817	0.0	0.9464039369021587	-0.29590106888533857	0.0	0.953181226612786	-0.3333157920381739	0.0	0.9214460207512926	-0.384445485760204	0.0	0.9131731019728746	-0.45416058064566905	0.0	0.9318955045739151	-0.5182640796786798	0.0	0.9560193974068304	-0.38963660250616905	0.0	0.9547041218799868	-0.45904590995440414	0.0	0.9814999007541028	-0.5164255048545333	0.0
